<?xml version="1.0" standalone="no"?><!DOCTYPE svg PUBLIC "-//W3C//DTD SVG 1.1//EN" "http://www.w3.org/Graphics/SVG/1.1/DTD/svg11.dtd"><svg t="1733732182151" class="icon" viewBox="0 0 1024 1024" version="1.1" xmlns="http://www.w3.org/2000/svg" p-id="12839" xmlns:xlink="http://www.w3.org/1999/xlink" width="32" height="32"><path d="M900.654545 246.690909c-16.290909-16.290909-41.890909-20.945455-62.836363-13.963636l-137.309091 46.545454-148.945455-167.563636c-11.636364-13.963636-30.254545-20.945455-48.872727-20.945455-18.618182 2.327273-34.909091 11.636364-46.545454 25.6l-109.381819 162.909091-165.236363-48.872727c-20.945455-6.981818-44.218182 0-58.181818 13.963636-16.290909 13.963636-23.272727 37.236364-18.618182 58.181819l100.072727 418.90909c6.981818 27.927273 30.254545 48.872727 60.509091 48.872728h470.109091c27.927273 0 51.2-18.618182 58.181818-44.218182l123.345455-416.581818c6.981818-23.272727 0-46.545455-16.29091-62.836364zM728.436364 698.181818H272.290909L174.545455 300.218182l155.927272 46.545454c25.6 6.981818 53.527273-2.327273 67.490909-23.272727l107.054546-155.927273 144.290909 162.909091c16.290909 18.618182 41.890909 25.6 65.163636 16.290909l128-44.218181-114.036363 395.636363zM875.054545 861.090909H146.618182c-18.618182 0-34.909091 16.290909-34.909091 34.909091S125.672727 930.909091 146.618182 930.909091h730.763636c18.618182 0 34.909091-16.290909 34.909091-34.909091s-16.290909-34.909091-37.236364-34.909091z" p-id="12840"></path></svg>