<?xml version="1.0" standalone="no"?><!DOCTYPE svg PUBLIC "-//W3C//DTD SVG 1.1//EN" "http://www.w3.org/Graphics/SVG/1.1/DTD/svg11.dtd"><svg t="1733732113858" class="icon" viewBox="0 0 1024 1024" version="1.1" xmlns="http://www.w3.org/2000/svg" p-id="10969" xmlns:xlink="http://www.w3.org/1999/xlink" width="32" height="32"><path d="M444.089307 601.983407c-29.705556 0-58.430784-9.611915-82.507132-27.881001-29.148877-22.11774-47.928592-54.270021-52.890604-90.517573-3.070942-22.295795-0.556679-45.169759 7.231705-66.152653 3.270487-8.878205 13.083993-13.372565 21.962198-10.079566 8.855692 3.292999 13.372565 13.127995 10.079566 21.962198-5.852288 15.731286-7.720845 32.887015-5.40715 49.620118 3.715625 27.212782 17.822924 51.333132 39.696094 67.932182 21.850657 16.59905 48.818869 23.675212 76.076676 19.959587 56.139601-7.698333 95.568612-59.633169 87.869257-115.794259-7.698333-56.139601-59.633169-95.479585-115.794259-87.846744-9.1678 1.356904-17.978467-5.251607-19.247366-14.618952-1.267876-9.345856 5.251607-17.956977 14.618952-19.247366C500.429477 318.950216 569.80759 371.59625 580.065212 446.404026c4.962012 36.246529-4.472871 72.249511-26.589588 101.398388-22.11774 29.126364-54.270021 47.928592-90.517573 52.890604C456.661647 601.559758 450.342732 601.983407 444.089307 601.983407z" p-id="10970"></path><path d="M671.071925 707.207937c-4.383844 0-8.744151-1.669012-12.082176-5.006014l-140.203182-140.203182c-6.675026-6.675026-6.675026-17.489326 0-24.164353 6.675026-6.675026 17.489326-6.675026 24.164353 0l140.203182 140.203182c6.675026 6.675026 6.675026 17.489326 0 24.164353C679.8171 705.538925 675.455769 707.207937 671.071925 707.207937z" p-id="10971"></path><path d="M671.077042 690.124863m-28.441772 0a27.794 27.794 0 1 0 56.883545 0 27.794 27.794 0 1 0-56.883545 0Z" p-id="10972"></path><path d="M671.071925 735.644593c-25.099654 0-45.525869-20.426215-45.525869-45.525869s20.426215-45.525869 45.525869-45.525869 45.525869 20.426215 45.525869 45.525869S696.17158 735.644593 671.071925 735.644593zM671.071925 678.771281c-6.252401 0-11.348466 5.095042-11.348466 11.348466 0 6.252401 5.095042 11.348466 11.348466 11.348466 6.252401 0 11.348466-5.095042 11.348466-11.348466C682.420391 683.866323 677.325349 678.771281 671.071925 678.771281z" p-id="10973"></path><path d="M512 964.074166c-249.278413 0-452.074166-202.795752-452.074166-452.074166S262.721587 59.925834 512 59.925834s452.074166 202.795752 452.074166 452.074166S761.278413 964.074166 512 964.074166zM512 94.103238c-230.43116 0-417.896762 187.464579-417.896762 417.896762s187.464579 417.896762 417.896762 417.896762 417.896762-187.464579 417.896762-417.896762S742.43116 94.103238 512 94.103238z" p-id="10974"></path></svg>