<?xml version="1.0" standalone="no"?><!DOCTYPE svg PUBLIC "-//W3C//DTD SVG 1.1//EN" "http://www.w3.org/Graphics/SVG/1.1/DTD/svg11.dtd"><svg t="1733749100834" class="icon" viewBox="0 0 1024 1024" version="1.1" xmlns="http://www.w3.org/2000/svg" p-id="3563" xmlns:xlink="http://www.w3.org/1999/xlink" width="32" height="32"><path d="M628.053333 655.018667c0 40.277333-32.768 72.704-72.704 72.704H457.386667c-40.277333 0-72.704-32.768-72.704-72.704 0-40.277333 32.768-72.704 72.704-72.704h97.962666c40.277333-0.341333 72.704 32.426667 72.704 72.704z" fill="#00A0E9" p-id="3564"></path><path d="M522.24 520.533333c-71.338667 0-129.365333-58.026667-129.365333-129.365333s58.026667-129.365333 129.365333-129.365333 129.365333 58.026667 129.365333 129.365333-58.026667 129.365333-129.365333 129.365333z m0-211.626666c-45.397333 0-82.261333 36.864-82.261333 82.261333s36.864 82.261333 82.261333 82.261333 82.261333-36.864 82.261333-82.261333c0.341333-45.397333-36.864-82.261333-82.261333-82.261333z" p-id="3565"></path><path d="M317.781333 778.922667c-3.413333 0-6.826667-0.682667-9.898666-2.048-19.456-8.874667-32.426667-17.749333-39.936-23.552-11.605333-8.533333-18.090667-22.528-17.408-36.522667 3.072-77.141333 39.594667-149.162667 100.010666-197.632 17.408-13.994667 42.666667-12.629333 58.709334 3.413333 13.994667 13.994667 46.762667 37.546667 107.861333 36.864 61.781333-0.682667 94.890667-23.893333 109.226667-37.888 15.701333-15.36 40.618667-16.384 57.685333-2.730666 61.098667 48.469333 97.621333 121.173333 100.352 198.656 0.341333 13.653333-5.12 26.282667-15.701333 35.157333-9.216 7.850667-20.48 15.018667-33.450667 21.845333-11.605333 6.144-25.6 1.706667-31.744-9.898666-6.144-11.605333-1.706667-25.6 9.898667-31.744 11.264-5.802667 19.114667-11.264 23.552-15.018667-2.730667-62.464-32.085333-120.832-80.554667-160.426667-20.138667 18.773333-63.829333 48.128-139.264 49.152-75.776 1.024-119.466667-29.354667-139.946667-48.810666C329.728 596.992 300.373333 655.018667 297.642667 716.8c6.144 4.437333 15.701333 10.581333 30.378666 17.408 11.605333 5.461333 16.725333 19.456 11.264 31.061333-4.096 8.874667-12.629333 13.653333-21.504 13.653334z" p-id="3566"></path><path d="M586.069333 763.562667c-6.826667 0-13.653333-3.072-18.090666-8.533334-4.778667-5.802667-6.485333-12.970667-4.778667-20.138666 9.557333-41.301333-24.576-116.736-38.229333-142.336-3.413333-6.485333-3.754667-13.994667-0.682667-20.821334s8.874667-11.605333 16.042667-13.312l45.397333-10.922666c4.096-1.024 8.533333-0.682667 12.970667 0.341333 30.037333 9.898667 52.565333 44.714667 68.949333 106.154667 10.922667 40.96 15.018667 79.189333 15.018667 80.554666 0.682667 6.485333-1.365333 12.970667-5.461334 17.749334-4.096 4.778667-10.24 7.850667-16.725333 8.192l-72.704 2.730666c-1.024 0-1.365333 0.341333-1.706667 0.341334z m-6.485333-166.570667c13.312 29.354667 31.402667 76.458667 32.085333 118.442667l20.48-0.682667c-8.533333-53.248-25.941333-106.837333-44.032-119.808l-8.533333 2.048zM453.290667 807.936h-0.682667c-15.701333-0.341333-43.690667-6.485333-47.104-7.168-12.629333-2.730667-20.48-15.36-17.749333-27.989333 2.730667-12.629333 15.36-20.821333 27.989333-17.749334 10.24 2.389333 29.696 6.144 38.229333 6.144 12.970667 0.341333 23.210667 11.264 22.869334 24.234667-0.341333 12.629333-10.922667 22.528-23.552 22.528z" p-id="3567"></path></svg>