<?xml version="1.0" standalone="no"?><!DOCTYPE svg PUBLIC "-//W3C//DTD SVG 1.1//EN" "http://www.w3.org/Graphics/SVG/1.1/DTD/svg11.dtd"><svg t="1733732713051" class="icon" viewBox="0 0 1024 1024" version="1.1" xmlns="http://www.w3.org/2000/svg" p-id="17942" xmlns:xlink="http://www.w3.org/1999/xlink" width="32" height="32"><path d="M840.343655 349.106026l-27.863604 0 0-100.252285c0-30.971385-25.197892-56.169277-56.171324-56.169277L605.645308 192.684464l-19.203364-30.931476c-9.496282-15.275915-27.768437-20.521383-41.597397-11.938913l-69.061912 42.871413-262.416642 0c-1.456165 0-2.867304 0.182149-4.227278 0.497327-21.928429 0.335644-42.249243 10.832719-57.32152 29.659507-14.343683 17.916045-22.242584 41.49302-22.242584 66.389036 0 12.885472 2.131547 25.408693 6.161327 36.985356-0.394996 1.514493-0.627287 3.095501-0.627287 4.733814l0 511.199775c0 30.972409 25.197892 56.170301 56.169277 56.170301l649.066749 0c30.972409 0 56.169277-25.197892 56.169277-56.170301L896.513956 405.276327C896.512932 374.303918 871.316064 349.106026 840.343655 349.106026zM859.066065 649.071865l-74.087369 0c-21.157879 0-38.370913-17.207917-38.370913-38.359656 0-21.148669 17.213034-38.353516 38.370913-38.353516l74.087369 0L859.066065 649.071865zM756.308727 230.131331c10.32516 0 18.724457 8.399297 18.724457 18.72241l0 100.252285-72.281233 0-73.861218-118.974695L756.308727 230.131331zM557.456796 186.05958l101.219309 163.046447-344.526731 0c-2.077312-0.795109-4.324492-1.249457-6.681166-1.249457l-10.658757 0L557.456796 186.05958zM181.048961 246.24431c8.070816-10.080589 18.430768-15.632025 29.17139-15.632025l97.248881 0c1.433652 0 2.824325-0.176009 4.16588-0.480954l103.823624 0L227.114113 347.046111c-0.407276 0.252757-0.788969 0.532119-1.169639 0.810459l-15.725146 0c-10.741645 0-21.100574-5.551436-29.170366-15.632025-9.046027-11.30037-14.028505-26.569122-14.028505-42.993187C167.020456 272.810363 172.001911 257.543657 181.048961 246.24431zM840.343655 860.872712 191.276906 860.872712c-10.323113 0-18.72241-8.399297-18.72241-18.723434L172.554496 385.993145c1.459235 0.36532 2.986007 0.558725 4.558829 0.558725l663.23033 0c10.324136 0 18.72241 8.399297 18.72241 18.723434l0 129.635499-74.087369 0c-41.806151 0-75.81778 34.003442-75.81778 75.800383 0 41.800012 34.011628 75.806523 75.81778 75.806523l74.087369 0 0 155.630546C859.066065 852.473415 850.667791 860.872712 840.343655 860.872712z" fill="#221614" p-id="17943"></path><path d="M798.753421 628.39801c10.042727 0 18.185174-8.147564 18.185174-18.198477 0-10.057053-8.141424-18.204617-18.185174-18.204617-10.070356 0-18.21178 8.147564-18.21178 18.204617C780.542664 620.250446 788.684088 628.39801 798.753421 628.39801z" fill="#221614" p-id="17944"></path></svg>