<?xml version="1.0" standalone="no"?><!DOCTYPE svg PUBLIC "-//W3C//DTD SVG 1.1//EN" "http://www.w3.org/Graphics/SVG/1.1/DTD/svg11.dtd"><svg t="1733197635721" class="icon" viewBox="0 0 1024 1024" version="1.1" xmlns="http://www.w3.org/2000/svg" p-id="1826" id="mx_n_1733197635722" width="48" height="48" xmlns:xlink="http://www.w3.org/1999/xlink"><path d="M704.662371 341.233353h-384.92482c-11.497754 0-20.995899-9.398164-20.995899-20.995899v-0.699864c0-11.497754 9.398164-20.995899 20.995899-20.995899h385.0248c11.497754 0 20.995899 9.398164 20.995899 20.995899v0.699864c-0.09998 11.597735-9.498145 20.995899-21.095879 20.995899zM704.662371 511.90002h-384.92482c-11.497754 0-20.995899-9.398164-20.995899-20.9959v-0.699863c0-11.497754 9.398164-20.995899 20.995899-20.995899h385.0248c11.497754 0 20.995899 9.398164 20.995899 20.995899v0.699863c-0.09998 11.597735-9.498145 20.995899-21.095879 20.9959zM704.662371 682.566686h-384.92482c-11.497754 0-20.995899-9.398164-20.995899-20.995899v-0.699863c0-11.497754 9.398164-20.995899 20.995899-20.9959h385.0248c11.497754 0 20.995899 9.398164 20.995899 20.9959v0.699863c-0.09998 11.497754-9.498145 20.995899-21.095879 20.995899z" fill="" p-id="1827"></path><path d="M837.336458 63.987502H722.658856c-9.598125-36.592853-42.791642-63.987502-82.283929-63.987502H384.124976c-39.592267 0-72.785784 27.394649-82.283929 63.987502H187.063464c-56.089045 0-102.679945 44.091388-102.679945 100.380395v48.890451c0 11.797696 9.598125 21.295841 21.295841 21.295841 11.797696 0 21.295841-9.598125 21.29584-21.295841v-48.890451c0-32.793595 27.394649-57.788713 59.988284-57.788713h114.677602c9.598125 36.592853 42.791642 63.987502 82.283929 63.987502h256.14997c39.592267 0 72.785784-27.394649 82.283929-63.987502h114.677602c32.593634 0 58.188635 24.895138 58.188635 57.788713v560.790471H701.762937c-46.290959 0-83.783636 37.492677-83.783636 83.683655v172.266354H187.063464c-32.593634 0-59.988284-28.494435-59.988283-61.288029v-535.895333c0-11.797696-9.598125-21.295841-21.295841-21.295841-11.797696 0-21.295841 9.598125-21.295841 21.295841v535.895333c0 56.388987 46.5909 103.979691 102.679946 103.979691h484.305409l266.847881-252.650654V164.367897c-0.09998-56.289006-44.891232-100.380394-100.980277-100.380395zM640.274946 128.174966H384.124976c-23.495411 0-42.691662-18.99629-42.691662-42.491701S360.629565 43.191564 384.124976 43.191564h256.14997c23.495411 0 42.691662 18.99629 42.691662 42.491701S663.870338 128.174966 640.274946 128.174966zM659.971099 972.809998v-163.967975c0-23.19547 23.595392-40.792033 49.490334-40.792033h172.566296L659.971099 972.809998z" fill="" p-id="1828"></path><path d="M85.283343 298.641672a21.395821 21.295841 0 1 0 42.791642 0 21.395821 21.295841 0 1 0-42.791642 0Z" fill="" p-id="1829"></path></svg>