<?xml version="1.0" standalone="no"?><!DOCTYPE svg PUBLIC "-//W3C//DTD SVG 1.1//EN" "http://www.w3.org/Graphics/SVG/1.1/DTD/svg11.dtd"><svg t="1733732665617" class="icon" viewBox="0 0 1024 1024" version="1.1" xmlns="http://www.w3.org/2000/svg" p-id="16877" xmlns:xlink="http://www.w3.org/1999/xlink" width="32" height="32"><path d="M502.101333 369.322667l52.906667 87.722666 109.568 25.258667-73.728 84.992 9.898667 111.957333-103.765334-43.690666-103.424 43.690666 9.557334-111.957333-73.386667-84.992 109.226667-25.258667 52.906666-87.722666H203.434667v393.216h485.376V369.322667h-186.709334z" fill="#E6E6EB" p-id="16878"></path><path d="M445.44 553.642667l-5.12 61.44 56.661333-23.893334 57.002667 23.893334-5.12-61.44 40.277333-46.762667-60.074666-13.994667-32.085334-52.906666-31.744 52.906666-60.074666 13.994667 40.277333 46.762667z" fill="#E6E6EB" p-id="16879"></path><path d="M329.728 482.304l73.386667 84.992-9.557334 111.957333 102.4-43.690666 102.4 43.690666-9.898666-111.957333 73.728-84.992-109.568-25.258667-52.906667-87.722666-5.12-8.533334-4.778667 8.533334-53.248 87.722666z m167.253333-42.325333l32.085334 52.906666 60.074666 13.994667-40.277333 46.762667 5.12 61.44-57.002667-23.893334-56.661333 23.210667 5.12-61.44-40.277333-46.762667 60.074666-13.994666z" fill="#19191E" p-id="16880"></path><path d="M448.512 230.4l-47.445333-64.853333H148.821333v651.605333h696.661334V230.4z m341.333333 532.138667H204.8V220.16h170.666667l47.104 64.853333h368.298666z" fill="#19191E" p-id="16881"></path></svg>