<?xml version="1.0" standalone="no"?><!DOCTYPE svg PUBLIC "-//W3C//DTD SVG 1.1//EN" "http://www.w3.org/Graphics/SVG/1.1/DTD/svg11.dtd"><svg t="1733732023057" class="icon" viewBox="0 0 1024 1024" version="1.1" xmlns="http://www.w3.org/2000/svg" p-id="9754" xmlns:xlink="http://www.w3.org/1999/xlink" width="32" height="32"><path d="M490.88 181.546667a29.866667 29.866667 0 0 1 42.24 0l84.053333 84.053333h111.36a29.866667 29.866667 0 0 1 29.866667 29.866667v111.36l84.053333 84.053333a29.866667 29.866667 0 0 1 0 42.24l-84.053333 84.053333v111.36a29.866667 29.866667 0 0 1-29.866667 29.866667h-111.36l-84.053333 84.053333a29.866667 29.866667 0 0 1-42.24 0l-84.053333-84.053333h-111.36a29.866667 29.866667 0 0 1-29.866667-29.866667v-111.36l-84.053333-84.053333a29.866667 29.866667 0 0 1 0-42.24l84.053333-84.053333v-111.36a29.866667 29.866667 0 0 1 29.866667-29.866667h111.36l84.053333-84.053333zM512 244.906667l-71.68 71.68a29.866667 29.866667 0 0 1-21.12 8.746666h-93.866667v93.866667a29.866667 29.866667 0 0 1-8.746666 21.12L244.906667 512l71.68 71.68a29.866667 29.866667 0 0 1 8.746666 21.12v93.866667h93.866667a29.866667 29.866667 0 0 1 21.12 8.746666L512 779.093333l71.68-71.68a29.866667 29.866667 0 0 1 21.12-8.746666h93.866667v-93.866667a29.866667 29.866667 0 0 1 8.746666-21.12L779.093333 512l-71.68-71.68a29.866667 29.866667 0 0 1-8.746666-21.12v-93.866667h-93.866667a29.866667 29.866667 0 0 1-21.12-8.746666L512 244.906667z" fill="#2B2F36" p-id="9755"></path><path d="M512 449.066667a62.933333 62.933333 0 1 0 0 125.866666 62.933333 62.933333 0 0 0 0-125.866666zM389.333333 512a122.666667 122.666667 0 1 1 245.333334 0 122.666667 122.666667 0 0 1-245.333334 0z" fill="#035DFF" p-id="9756"></path></svg>