<?xml version="1.0" standalone="no"?><!DOCTYPE svg PUBLIC "-//W3C//DTD SVG 1.1//EN" "http://www.w3.org/Graphics/SVG/1.1/DTD/svg11.dtd"><svg t="1733749062495" class="icon" viewBox="0 0 1024 1024" version="1.1" xmlns="http://www.w3.org/2000/svg" p-id="2448" xmlns:xlink="http://www.w3.org/1999/xlink" width="32" height="32"><path d="M476.8 208l-256 169.6c-19.2 12.8-28.8 32-28.8 54.4V800c0 19.2 12.8 32 32 32h576c19.2 0 32-12.8 32-32V432c0-22.4-9.6-41.6-28.8-54.4l-256-169.6c-22.4-12.8-48-12.8-70.4 0z m-220.8 224l256-169.6 256 169.6V768H256V432z" fill="#221814" p-id="2449"></path><path d="M512 512c16 0 28.8 12.8 32 28.8V672c0 19.2-12.8 32-32 32-16 0-28.8-12.8-32-28.8V544c0-19.2 12.8-32 32-32z" fill="#C70019" p-id="2450"></path></svg>